<svg xmlns="http://www.w3.org/2000/svg" viewBox="0 0 64 64">
  <defs>
    <linearGradient id="g" x1="8" y1="7" x2="56" y2="57" gradientUnits="userSpaceOnUse">
      <stop offset="0" stop-color="#55e0c6"/>
      <stop offset="0.55" stop-color="#8cff7a"/>
      <stop offset="1" stop-color="#ffd166"/>
    </linearGradient>
  </defs>
  <rect width="64" height="64" rx="14" fill="#0b0f14"/>
  <rect x="6" y="6" width="52" height="52" rx="12" fill="#121820" stroke="#ffffff" stroke-opacity="0.16"/>
  <path d="M23 18h-6c-3 0-5 2-5 5v4c0 3-2 5-5 5 3 0 5 2 5 5v4c0 3 2 5 5 5h6" fill="none" stroke="url(#g)" stroke-width="5" stroke-linecap="round" stroke-linejoin="round"/>
  <path d="M41 18h6c3 0 5 2 5 5v4c0 3 2 5 5 5-3 0-5 2-5 5v4c0 3-2 5-5 5h-6" fill="none" stroke="url(#g)" stroke-width="5" stroke-linecap="round" stroke-linejoin="round"/>
  <path d="M27 22h9c5 0 8 3 8 8v4c0 5-3 8-8 8h-9V22Z" fill="none" stroke="#f7fbff" stroke-width="4" stroke-linejoin="round"/>
  <path d="M27 22v20" stroke="#f7fbff" stroke-width="4" stroke-linecap="round"/>
  <circle cx="36" cy="32" r="2.4" fill="#ffd166"/>
</svg>
